<?xml version="1.0" encoding="UTF-8" standalone="no"?>
<!-- Created with Inkscape (http://www.inkscape.org/) -->
<svg
   xmlns:dc="http://purl.org/dc/elements/1.1/"
   xmlns:cc="http://creativecommons.org/ns#"
   xmlns:rdf="http://www.w3.org/1999/02/22-rdf-syntax-ns#"
   xmlns:svg="http://www.w3.org/2000/svg"
   xmlns="http://www.w3.org/2000/svg"
   xmlns:sodipodi="http://sodipodi.sourceforge.net/DTD/sodipodi-0.dtd"
   xmlns:inkscape="http://www.inkscape.org/namespaces/inkscape"
   id="svg2642"
   sodipodi:version="0.32"
   inkscape:version="0.46"
   width="199.28612"
   height="204.93556"
   xml:space="preserve"
   sodipodi:docname="emblem.svg"
   version="1.0"
   inkscape:output_extension="org.inkscape.output.svg.inkscape"><metadata
     id="metadata2647"><rdf:RDF><cc:Work
         rdf:about=""><dc:format>image/svg+xml</dc:format><dc:type
           rdf:resource="http://purl.org/dc/dcmitype/StillImage" /></cc:Work></rdf:RDF></metadata><defs
     id="defs2645"><inkscape:perspective
       sodipodi:type="inkscape:persp3d"
       inkscape:vp_x="0 : 526.18109 : 1"
       inkscape:vp_y="0 : 1000 : 0"
       inkscape:vp_z="744.09448 : 526.18109 : 1"
       inkscape:persp3d-origin="372.04724 : 350.78739 : 1"
       id="perspective2649" /><clipPath
       clipPathUnits="userSpaceOnUse"
       id="clipPath2657"><path
         d="M 0,595.276 L 841.89,595.276 L 841.89,0 L 0,0 L 0,595.276 z"
         id="path2659" /></clipPath></defs><sodipodi:namedview
     inkscape:window-height="670"
     inkscape:window-width="640"
     inkscape:pageshadow="2"
     inkscape:pageopacity="0.0"
     guidetolerance="10.0"
     gridtolerance="10.0"
     objecttolerance="10.0"
     borderopacity="1.0"
     bordercolor="#666666"
     pagecolor="#ffffff"
     id="base"
     showgrid="false"
     inkscape:zoom="0.52073309"
     inkscape:cx="526.18127"
     inkscape:cy="372.04749"
     inkscape:window-x="630"
     inkscape:window-y="285"
     inkscape:current-layer="g2651" /><g
     id="g2651"
     inkscape:groupmode="layer"
     inkscape:label="holdingnuts_logo_pfade"
     transform="matrix(1.25,0,0,-1.25,-457.62575,447.40662)"><g
       id="g2653"><g
         id="g2655"
         clip-path="url(#clipPath2657)"><g
           id="g2661"
           transform="translate(442.1299,357.9253)"><path
             d="M 0,0 C 0,0 6.956,-9.326 18.337,-16.914 C 29.72,-24.501 35.252,-34.936 35.252,-43.155 C 35.252,-51.375 27.664,-60.068 18.969,-60.068 C 10.274,-60.068 2.687,-53.113 2.687,-51.216 C 2.687,-49.32 4.584,-65.761 19.522,-69.949 L -13.91,-70.029 C -13.91,-70.029 -3.161,-68.763 0.79,-51.375 C 0.79,-51.375 -3.794,-61.333 -14.858,-61.333 C -25.923,-61.333 -32.563,-52.164 -32.563,-44.261 C -32.563,-36.357 -28.087,-27.786 -13.91,-15.807 C -10.932,-13.29 0,0 0,0"
             style="fill:#000000;fill-opacity:1;fill-rule:nonzero;stroke:none"
             id="path2663" /></g><g
           id="g2665"
           transform="translate(390.0034,244.4141)"><path
             d="M 0,0 L -7.552,0 L -7.552,13.934 L -14.895,13.934 L -14.895,0 L -22.447,0 L -22.447,35.637 L -14.895,35.637 L -14.895,21.75 L -7.552,21.75 L -7.552,35.637 L 0,35.637 L 0,0 z"
             style="fill:#c90000;fill-opacity:1;fill-rule:nonzero;stroke:none"
             id="path2667" /></g><g
           id="g2669"
           transform="translate(403.5547,273.1074)"><path
             d="M 0,0 C -0.56,0 -1.056,-0.09 -1.489,-0.268 C -1.923,-0.445 -2.287,-0.655 -2.581,-0.898 C -2.874,-1.141 -3.098,-1.408 -3.251,-1.699 C -3.406,-1.99 -3.482,-2.25 -3.482,-2.477 L -3.482,-19.274 C -3.482,-19.501 -3.406,-19.76 -3.251,-20.052 C -3.098,-20.343 -2.881,-20.609 -2.602,-20.853 C -2.322,-21.096 -1.972,-21.306 -1.552,-21.483 C -1.133,-21.662 -0.644,-21.751 -0.084,-21.751 C 0.475,-21.751 0.972,-21.662 1.405,-21.483 C 1.839,-21.306 2.203,-21.096 2.496,-20.853 C 2.79,-20.609 3.014,-20.343 3.167,-20.052 C 3.321,-19.76 3.398,-19.501 3.398,-19.274 L 3.398,-2.477 C 3.398,-1.959 3.098,-1.416 2.496,-0.85 C 1.895,-0.283 1.063,0 0,0 M 0.042,-29.567 C -1.497,-29.567 -2.937,-29.365 -4.28,-28.96 C -5.622,-28.556 -6.797,-27.948 -7.804,-27.14 C -8.811,-26.331 -9.602,-25.304 -10.174,-24.057 C -10.748,-22.812 -11.035,-21.347 -11.035,-19.663 L -11.035,-2.088 C -11.035,-0.405 -10.755,1.06 -10.195,2.307 C -9.636,3.552 -8.86,4.58 -7.867,5.389 C -6.875,6.197 -5.713,6.805 -4.384,7.21 C -3.056,7.614 -1.636,7.816 -0.126,7.816 C 1.412,7.816 2.853,7.614 4.195,7.21 C 5.538,6.805 6.713,6.197 7.72,5.389 C 8.727,4.58 9.517,3.552 10.09,2.307 C 10.663,1.06 10.95,-0.405 10.95,-2.088 L 10.95,-19.663 C 10.95,-21.347 10.67,-22.812 10.111,-24.057 C 9.551,-25.304 8.775,-26.331 7.783,-27.14 C 6.79,-27.948 5.628,-28.556 4.3,-28.96 C 2.972,-29.365 1.552,-29.567 0.042,-29.567"
             style="fill:#000000;fill-opacity:1;fill-rule:nonzero;stroke:none"
             id="path2671" /></g><g
           id="g2673"
           transform="translate(435.9023,252.2305)"><path
             d="M 0,0 L 0,-7.816 L -18.88,-7.816 L -18.88,27.82 L -11.328,27.82 L -11.328,0 L 0,0 z"
             style="fill:#000000;fill-opacity:1;fill-rule:nonzero;stroke:none"
             id="path2675" /></g><g
           id="g2677"
           transform="translate(444.9229,252.2305)"><path
             d="M 0,0 L 4.447,0 C 5.286,0 5.979,0.413 6.524,1.238 C 7.069,2.063 7.503,3.026 7.825,4.127 C 8.146,5.227 8.362,6.344 8.476,7.477 C 8.587,8.609 8.644,9.468 8.644,10.051 C 8.644,10.633 8.607,11.475 8.538,12.574 C 8.468,13.675 8.293,14.775 8.014,15.876 C 7.733,16.977 7.313,17.939 6.755,18.766 C 6.194,19.59 5.427,20.003 4.447,20.003 L 0,20.003 L 0,0 z M -7.552,27.82 L 4.615,27.82 C 7.16,27.82 9.21,27.334 10.762,26.363 C 12.313,25.393 13.51,24.089 14.349,22.455 C 15.188,20.82 15.747,18.927 16.027,16.774 C 16.307,14.621 16.474,12.381 16.53,10.051 L 16.53,9.953 C 16.474,7.623 16.307,5.381 16.027,3.229 C 15.747,1.076 15.188,-0.817 14.349,-2.451 C 13.51,-4.086 12.313,-5.389 10.762,-6.36 C 9.21,-7.331 7.16,-7.816 4.615,-7.816 L -7.552,-7.816 L -7.552,27.82 z"
             style="fill:#000000;fill-opacity:1;fill-rule:nonzero;stroke:none"
             id="path2679" /></g><path
           d="M 463.971,280.051 L 471.523,280.051 L 471.523,244.414 L 463.971,244.414 L 463.971,280.051 z"
           style="fill:#000000;fill-opacity:1;fill-rule:nonzero;stroke:none"
           id="path2681" /><g
           id="g2683"
           transform="translate(474.46,280.0508)"><path
             d="M 0,0 L 7.972,0 L 15.691,-18.984 L 15.691,0 L 23.244,0 L 23.244,-35.637 L 15.272,-35.637 L 7.553,-17.09 L 7.553,-35.637 L 0,-35.637 L 0,0 z"
             style="fill:#000000;fill-opacity:1;fill-rule:nonzero;stroke:none"
             id="path2685" /></g><g
           id="g2687"
           transform="translate(522.71,264.9023)"><path
             d="M 0,0 L 0,-9.613 C 0,-11.135 -0.147,-12.599 -0.44,-14.007 C -0.734,-15.415 -1.28,-16.67 -2.077,-17.77 C -2.874,-18.869 -3.993,-19.743 -5.434,-20.392 C -6.875,-21.038 -8.741,-21.362 -11.035,-21.362 C -13.133,-21.362 -14.916,-21.014 -16.384,-20.318 C -17.853,-19.622 -19.056,-18.668 -19.992,-17.454 C -20.93,-16.24 -21.615,-14.824 -22.048,-13.206 C -22.482,-11.588 -22.698,-9.855 -22.698,-8.011 L -22.698,2.719 C -22.698,4.564 -22.482,6.287 -22.048,7.89 C -21.615,9.492 -20.923,10.899 -19.972,12.113 C -19.021,13.327 -17.811,14.281 -16.342,14.979 C -14.874,15.674 -13.105,16.021 -11.035,16.021 C -8.741,16.021 -6.896,15.697 -5.497,15.051 C -4.099,14.402 -3,13.529 -2.203,12.429 C -1.406,11.328 -0.86,10.074 -0.566,8.666 C -0.273,7.258 -0.099,5.793 -0.042,4.272 L -7.595,4.272 C -7.595,4.596 -7.623,4.984 -7.679,5.438 C -7.734,5.891 -7.874,6.328 -8.098,6.748 C -8.322,7.169 -8.664,7.518 -9.126,7.793 C -9.587,8.066 -10.224,8.205 -11.035,8.205 C -11.706,8.205 -12.301,8.027 -12.818,7.671 C -13.336,7.314 -13.77,6.838 -14.118,6.238 C -14.469,5.64 -14.727,4.952 -14.895,4.176 C -15.063,3.398 -15.146,2.589 -15.146,1.748 L -15.146,-6.991 C -15.146,-7.865 -15.063,-8.69 -14.895,-9.468 C -14.727,-10.244 -14.469,-10.94 -14.118,-11.555 C -13.77,-12.17 -13.336,-12.656 -12.818,-13.012 C -12.301,-13.368 -11.706,-13.546 -11.035,-13.546 C -10.224,-13.546 -9.587,-13.408 -9.126,-13.133 C -8.664,-12.858 -8.314,-12.51 -8.077,-12.089 C -7.84,-11.669 -7.692,-11.239 -7.637,-10.803 C -7.581,-10.365 -7.553,-9.97 -7.553,-9.613 L -7.553,-7.816 L -11.035,-7.816 L -11.035,0 L 0,0 z"
             style="fill:#000000;fill-opacity:1;fill-rule:nonzero;stroke:none"
             id="path2689" /></g><g
           id="g2691"
           transform="translate(367.6006,286.6074)"><path
             d="M 0,0 L 154.405,0"
             style="fill:none;stroke:#000000;stroke-width:3;stroke-linecap:round;stroke-linejoin:miter;stroke-miterlimit:4;stroke-dasharray:none;stroke-opacity:1"
             id="path2693" /></g><g
           id="g2695"
           transform="translate(367.6006,238.6094)"><path
             d="M 0,0 L 154.405,0"
             style="fill:none;stroke:#000000;stroke-width:3;stroke-linecap:round;stroke-linejoin:miter;stroke-miterlimit:4;stroke-dasharray:none;stroke-opacity:1"
             id="path2697" /></g><g
           id="g2699"
           transform="translate(438.876,205.75)"><path
             d="M 0,0 C 0.244,-0.789 -0.196,-1.629 -0.985,-1.874 L -30.993,-11.205 C -31.782,-11.451 -32.62,-11.01 -32.866,-10.221 L -46.569,33.838 C -46.815,34.627 -46.373,35.466 -45.584,35.709 L -15.577,45.043 C -14.788,45.288 -13.949,44.849 -13.704,44.059 L 0,0 z"
             style="fill:#ffffff;fill-opacity:1;fill-rule:nonzero;stroke:none"
             id="path2701" /></g><g
           id="g2703"
           transform="translate(438.876,205.75)"><path
             d="M 0,0 C 0.244,-0.789 -0.196,-1.629 -0.985,-1.874 L -30.993,-11.205 C -31.782,-11.451 -32.62,-11.01 -32.866,-10.221 L -46.569,33.838 C -46.815,34.627 -46.373,35.466 -45.584,35.709 L -15.577,45.043 C -14.788,45.288 -13.949,44.849 -13.704,44.059 L 0,0 z"
             style="fill:none;stroke:#000000;stroke-width:1;stroke-linecap:butt;stroke-linejoin:miter;stroke-miterlimit:4;stroke-dasharray:none;stroke-opacity:1"
             id="path2705" /></g><g
           id="g2707"
           transform="translate(413.1377,229.6563)"><path
             d="M 0,0 C 0,0 2.144,-1.557 5.132,-2.438 C 8.12,-3.318 10.031,-5.212 10.587,-7.002 C 11.144,-8.787 10.081,-11.193 8.189,-11.779 C 6.298,-12.369 4.177,-11.37 4.049,-10.957 C 3.921,-10.545 5.445,-13.992 8.978,-13.893 L 1.711,-16.171 C 1.711,-16.171 3.966,-15.168 3.647,-11.121 C 3.647,-11.121 3.323,-13.596 0.919,-14.344 C -1.489,-15.094 -3.554,-13.549 -4.088,-11.829 C -4.622,-10.111 -4.229,-7.941 -1.955,-4.379 C -1.479,-3.629 0,0 0,0"
             style="fill:#000000;fill-opacity:1;fill-rule:nonzero;stroke:none"
             id="path2709" /></g><g
           id="g2711"
           transform="translate(399.7759,232.3857)"><path
             d="M 0,0 C 0,0 0.644,-0.448 1.545,-0.696 C 2.446,-0.939 3.018,-1.483 3.179,-2.004 C 3.341,-2.522 3.011,-3.229 2.435,-3.405 C 1.86,-3.585 1.222,-3.3 1.184,-3.182 C 1.146,-3.059 1.597,-4.062 2.666,-4.02 L 0.458,-4.709 C 0.458,-4.709 1.141,-4.411 1.062,-3.233 C 1.062,-3.233 0.955,-3.952 0.225,-4.181 C -0.507,-4.411 -1.124,-3.966 -1.284,-3.467 C -1.437,-2.968 -1.312,-2.335 -0.608,-1.287 C -0.462,-1.066 0,0 0,0"
             style="fill:#000000;fill-opacity:1;fill-rule:nonzero;stroke:none"
             id="path2713" /></g><g
           id="g2715"
           transform="translate(398.7749,236.665)"><path
             d="M 0,0 C -0.128,0.203 -1.073,1.814 -1.156,1.956 C -1.208,2.04 -1.234,2.083 -1.258,2.075 C -1.294,2.064 -1.308,2.025 -1.305,1.951 C -1.297,1.845 -1.249,-0.196 -1.236,-0.385 L 0,0 z M -1.225,-0.715 C -1.218,-0.905 -1.171,-2.085 -1.136,-2.301 C -1.13,-2.365 -1.11,-2.427 -1.099,-2.465 C -1.068,-2.563 -0.946,-2.617 -0.827,-2.58 L -0.577,-2.503 C -0.53,-2.488 -0.514,-2.499 -0.506,-2.522 L -0.447,-2.713 C -0.433,-2.759 -0.436,-2.793 -0.472,-2.804 C -0.555,-2.83 -0.811,-2.884 -1.227,-3.014 C -1.667,-3.15 -1.791,-3.214 -1.874,-3.24 C -1.909,-3.251 -1.924,-3.205 -1.94,-3.151 L -1.985,-3.007 C -2,-2.961 -1.993,-2.942 -1.969,-2.936 L -1.79,-2.88 C -1.624,-2.828 -1.551,-2.688 -1.517,-2.419 C -1.5,-2.263 -1.498,-0.759 -1.519,-0.063 C -1.525,0.103 -1.556,1.898 -1.558,2.116 C -1.569,2.194 -1.576,2.343 -1.626,2.378 C -1.651,2.396 -1.684,2.436 -1.69,2.458 C -1.7,2.488 -1.698,2.523 -1.654,2.553 C -1.483,2.674 -1.228,3.004 -1.185,3.117 C -1.163,3.174 -1.149,3.212 -1.119,3.222 C -1.083,3.232 -1.031,3.147 -1.005,3.106 C -0.751,2.667 0.243,1.104 0.502,0.649 C 0.83,0.1 1.651,-1.199 1.798,-1.38 C 1.986,-1.604 2.169,-1.648 2.287,-1.611 L 2.478,-1.553 C 2.514,-1.541 2.53,-1.553 2.542,-1.591 L 2.591,-1.751 C 2.605,-1.797 2.608,-1.846 2.561,-1.86 C 2.454,-1.894 2.328,-1.907 1.674,-2.111 C 1.174,-2.267 0.979,-2.353 0.849,-2.394 C 0.801,-2.408 0.775,-2.366 0.761,-2.32 L 0.713,-2.168 C 0.699,-2.122 0.706,-2.104 0.742,-2.093 L 0.896,-2.044 C 1.063,-1.992 1.087,-1.901 0.987,-1.706 C 0.854,-1.447 0.313,-0.545 0.154,-0.286 L -1.225,-0.715 z"
             style="fill:#000000;fill-opacity:1;fill-rule:nonzero;stroke:none"
             id="path2717" /></g><g
           id="g2719"
           transform="translate(444.3242,198.9785)"><path
             d="M 0,0 C -0.104,-0.818 -0.852,-1.402 -1.672,-1.299 L -32.853,2.613 C -33.673,2.717 -34.253,3.465 -34.15,4.285 L -28.404,50.066 C -28.303,50.887 -27.554,51.467 -26.734,51.365 L 4.445,47.451 C 5.267,47.348 5.848,46.602 5.744,45.781 L 0,0 z"
             style="fill:#ffffff;fill-opacity:1;fill-rule:nonzero;stroke:none"
             id="path2721" /></g><g
           id="g2723"
           transform="translate(444.3242,198.9785)"><path
             d="M 0,0 C -0.104,-0.818 -0.852,-1.402 -1.672,-1.299 L -32.853,2.613 C -33.673,2.717 -34.253,3.465 -34.15,4.285 L -28.404,50.066 C -28.303,50.887 -27.554,51.467 -26.734,51.365 L 4.445,47.451 C 5.267,47.348 5.848,46.602 5.744,45.781 L 0,0 z"
             style="fill:none;stroke:#000000;stroke-width:1;stroke-linecap:butt;stroke-linejoin:miter;stroke-miterlimit:4;stroke-dasharray:none;stroke-opacity:1"
             id="path2725" /></g><g
           id="g2727"
           transform="translate(420.7217,243.6348)"><path
             d="M 0,0 C -0.033,0.236 -0.227,2.095 -0.244,2.259 C -0.257,2.356 -0.264,2.405 -0.288,2.408 C -0.325,2.413 -0.354,2.385 -0.381,2.315 C -0.419,2.216 -1.219,0.338 -1.285,0.16 L 0,0 z M -1.411,-0.145 C -1.483,-0.32 -1.929,-1.416 -1.985,-1.625 C -2.006,-1.688 -2.014,-1.75 -2.019,-1.79 C -2.032,-1.894 -1.944,-1.992 -1.821,-2.008 L -1.562,-2.041 C -1.512,-2.047 -1.501,-2.063 -1.504,-2.088 L -1.528,-2.286 C -1.535,-2.333 -1.552,-2.363 -1.589,-2.358 C -1.675,-2.348 -1.932,-2.292 -2.363,-2.237 C -2.82,-2.18 -2.96,-2.187 -3.047,-2.176 C -3.084,-2.171 -3.077,-2.123 -3.07,-2.068 L -3.052,-1.918 C -3.046,-1.87 -3.031,-1.856 -3.007,-1.859 L -2.821,-1.883 C -2.648,-1.904 -2.523,-1.807 -2.381,-1.575 C -2.303,-1.441 -1.679,-0.071 -1.409,0.57 C -1.347,0.724 -0.632,2.371 -0.544,2.569 C -0.521,2.646 -0.467,2.785 -0.498,2.837 C -0.513,2.863 -0.525,2.913 -0.522,2.937 C -0.519,2.968 -0.502,2.998 -0.452,3.008 C -0.245,3.046 0.124,3.242 0.21,3.327 C 0.253,3.37 0.281,3.398 0.313,3.395 C 0.35,3.39 0.362,3.292 0.369,3.243 C 0.418,2.738 0.678,0.904 0.725,0.384 C 0.797,-0.253 1.007,-1.775 1.066,-2 C 1.144,-2.283 1.292,-2.398 1.416,-2.414 L 1.614,-2.439 C 1.65,-2.443 1.661,-2.461 1.656,-2.501 L 1.636,-2.667 C 1.63,-2.714 1.61,-2.76 1.562,-2.754 C 1.45,-2.74 1.33,-2.701 0.65,-2.615 C 0.131,-2.551 -0.082,-2.548 -0.218,-2.53 C -0.268,-2.524 -0.273,-2.476 -0.268,-2.428 L -0.248,-2.27 C -0.242,-2.222 -0.228,-2.208 -0.19,-2.213 L -0.029,-2.232 C 0.144,-2.255 0.202,-2.182 0.192,-1.963 C 0.179,-1.672 0.06,-0.627 0.021,-0.324 L -1.411,-0.145 z"
             style="fill:#000000;fill-opacity:1;fill-rule:nonzero;stroke:none"
             id="path2729" /></g><g
           id="g2731"
           transform="translate(434.5557,216.123)"><path
             d="M 0,0 L -10.147,1.373 L -9.997,1.768 C -8.644,1.868 -7.732,2.025 -7.265,2.238 C -6.564,2.558 -5.953,3.088 -5.435,3.83 C -4.916,4.572 -4.596,5.387 -4.476,6.272 C -4.459,6.4 -4.438,6.584 -4.413,6.824 C -5.034,5.9 -5.724,5.26 -6.484,4.898 C -7.243,4.539 -7.987,4.408 -8.713,4.506 C -9.638,4.631 -10.38,5.061 -10.939,5.794 C -11.498,6.528 -11.714,7.365 -11.587,8.308 C -11.461,9.232 -11.06,9.973 -10.384,10.527 C -9.707,11.081 -8.994,11.307 -8.244,11.206 C -7.766,11.141 -7.144,10.85 -6.377,10.332 C -6.636,10.936 -6.797,11.386 -6.857,11.682 C -6.92,11.979 -6.927,12.291 -6.883,12.618 C -6.76,13.527 -6.34,14.255 -5.625,14.801 C -4.909,15.345 -4.082,15.554 -3.14,15.426 C -2.198,15.299 -1.449,14.877 -0.893,14.159 C -0.336,13.441 -0.116,12.648 -0.234,11.779 C -0.33,11.068 -0.706,10.36 -1.362,9.652 C -0.649,9.881 -0.222,10.006 -0.08,10.027 C 0.144,10.063 0.392,10.062 0.662,10.025 C 1.461,9.917 2.11,9.51 2.612,8.804 C 3.113,8.099 3.301,7.282 3.176,6.357 C 3.046,5.4 2.616,4.64 1.886,4.076 C 1.155,3.514 0.341,3.293 -0.562,3.415 C -1.063,3.482 -1.563,3.674 -2.062,3.989 C -2.559,4.305 -2.977,4.691 -3.312,5.152 C -3.552,5.484 -3.831,6.03 -4.15,6.789 C -4.29,5.516 -4.232,4.486 -3.977,3.7 C -3.724,2.914 -3.262,2.229 -2.592,1.643 C -2.142,1.248 -1.291,0.841 -0.04,0.42 L 0,0 z"
             style="fill:#000000;fill-opacity:1;fill-rule:nonzero;stroke:none"
             id="path2733" /></g><g
           id="g2735"
           transform="translate(420.665,234.2559)"><path
             d="M 0,0 L -2.984,0.404 L -2.94,0.52 C -2.541,0.55 -2.274,0.596 -2.137,0.658 C -1.931,0.752 -1.751,0.908 -1.598,1.127 C -1.446,1.345 -1.353,1.584 -1.317,1.844 C -1.312,1.883 -1.306,1.937 -1.298,2.007 C -1.48,1.735 -1.684,1.547 -1.906,1.44 C -2.13,1.335 -2.349,1.296 -2.562,1.325 C -2.834,1.361 -3.053,1.488 -3.218,1.704 C -3.381,1.92 -3.444,2.166 -3.407,2.443 C -3.37,2.715 -3.252,2.933 -3.054,3.096 C -2.855,3.258 -2.646,3.325 -2.425,3.295 C -2.284,3.276 -2.101,3.19 -1.875,3.038 C -1.952,3.216 -1.998,3.348 -2.018,3.436 C -2.034,3.522 -2.037,3.614 -2.024,3.711 C -1.988,3.978 -1.864,4.191 -1.654,4.352 C -1.444,4.512 -1.201,4.573 -0.924,4.536 C -0.647,4.499 -0.427,4.374 -0.264,4.163 C -0.1,3.953 -0.035,3.72 -0.069,3.464 C -0.098,3.255 -0.209,3.047 -0.4,2.838 C -0.19,2.905 -0.065,2.942 -0.024,2.949 C 0.042,2.959 0.114,2.959 0.193,2.947 C 0.428,2.916 0.62,2.796 0.768,2.589 C 0.915,2.381 0.97,2.142 0.933,1.869 C 0.895,1.589 0.77,1.364 0.554,1.199 C 0.34,1.033 0.1,0.969 -0.166,1.005 C -0.313,1.024 -0.461,1.08 -0.606,1.173 C -0.753,1.266 -0.876,1.38 -0.975,1.516 C -1.045,1.613 -1.127,1.773 -1.221,1.996 C -1.263,1.622 -1.245,1.319 -1.17,1.088 C -1.095,0.857 -0.96,0.655 -0.764,0.483 C -0.63,0.367 -0.381,0.247 -0.013,0.124 L 0,0 z"
             style="fill:#000000;fill-opacity:1;fill-rule:nonzero;stroke:none"
             id="path2737" /></g><g
           id="g2739"
           transform="translate(477.2363,200.2813)"><path
             d="M 0,0 C 0.082,-0.043 0.187,-0.334 0.199,-0.484 C 0.204,-0.533 0.208,-0.584 0.13,-0.59 C -1.079,-0.646 -1.938,-0.672 -3.415,-0.801 C -5.087,-0.947 -5.977,-1.076 -6.982,-1.215 C -7.06,-1.221 -7.064,-1.172 -7.068,-1.121 C -7.091,-0.873 -7.069,-0.67 -6.957,-0.609 L -5.796,-0.006 C -5.498,0.17 -5.438,0.375 -5.434,0.778 C -5.456,1.479 -5.707,6.125 -5.878,8.068 C -6.214,11.902 -6.803,17.725 -8.746,17.554 C -10.262,17.421 -11.313,13.313 -11.565,8.172 C -11.599,6.764 -11.529,2.402 -11.294,0.164 C -11.259,-0.234 -11.091,-0.371 -10.888,-0.453 L -9.639,-0.846 C -9.518,-0.885 -9.453,-1.18 -9.439,-1.33 C -9.436,-1.379 -9.431,-1.43 -9.509,-1.436 C -10.718,-1.492 -11.694,-1.527 -13.132,-1.653 C -14.726,-1.793 -15.615,-1.922 -16.777,-2.074 C -16.854,-2.08 -16.859,-2.031 -16.863,-1.98 C -16.886,-1.732 -16.83,-1.477 -16.718,-1.417 L -15.357,-0.845 C -15.133,-0.727 -14.99,-0.563 -15.017,-0.264 C -15.139,1.131 -15.741,7.102 -15.907,8.994 C -16.038,10.488 -16.723,16.502 -16.914,18.242 C -16.945,18.591 -17.045,18.833 -17.321,18.859 L -18.655,18.893 C -18.771,18.883 -18.924,19.271 -18.945,19.521 C -18.95,19.57 -18.954,19.619 -18.842,19.68 L -12.94,21.604 C -12.75,21.67 -12.655,21.477 -12.633,21.228 C -12.616,21.029 -12.269,15.739 -12.141,13.392 C -12.098,12.893 -12.093,12.391 -12.084,11.84 L -11.928,11.854 C -11.864,12.462 -11.796,13.021 -11.739,13.276 C -11.178,17.14 -9.598,21.896 -7.188,22.107 C -4.506,22.344 -2.926,19.068 -2.38,12.843 C -2.091,9.555 -1.8,3.557 -1.771,1.451 C -1.754,0.801 -1.659,0.607 -1.335,0.484 L 0,0 z"
             style="fill:#000000;fill-opacity:1;fill-rule:nonzero;stroke:none"
             id="path2741" /></g><g
           id="g2743"
           transform="translate(507.8779,223.3994)"><path
             d="M 0,0 C 0.142,-3.401 0.396,-7.194 0.763,-11.379 C 1.393,-18.551 2.883,-19.474 4.282,-19.351 C 4.594,-19.323 4.904,-19.296 5.172,-19.223 C 5.479,-19.146 5.967,-18.901 6.636,-18.492 C 6.748,-18.433 6.813,-18.729 6.83,-18.927 C 6.853,-19.176 6.783,-19.283 6.71,-19.339 C 6.27,-19.679 5.178,-20.628 3.99,-20.933 C 3.723,-21.007 3.411,-21.034 2.401,-21.123 C -0.747,-21.399 -2.969,-19.736 -3.637,-12.567 C -3.873,-9.878 -4.111,-4.025 -4.15,-0.466 L -6.634,-0.733 C -6.711,-0.74 -6.794,-0.697 -6.811,-0.498 C -6.824,-0.348 -6.815,0.003 -6.765,0.31 C -6.674,0.619 -6.549,0.981 -6.199,1.013 L -4.135,1.144 C -4.136,2.046 -4.103,3.906 -3.967,5.474 C -3.937,6.028 -3.718,6.65 -2.72,7.34 C -2.052,7.751 -0.679,8.624 -0.445,8.645 C -0.367,8.651 -0.32,8.554 -0.332,8.252 C -0.327,6.849 -0.254,3.341 -0.131,1.494 L 4.585,1.757 C 4.624,1.76 4.667,1.714 4.671,1.665 C 4.697,1.366 4.581,0.904 4.504,0.897 L 0,0 z"
             style="fill:#000000;fill-opacity:1;fill-rule:nonzero;stroke:none"
             id="path2745" /></g><g
           id="g2747"
           transform="translate(514.5352,218.9629)"><path
             d="M 0,0 C -0.297,3.388 2.005,7.506 6.163,7.87 C 7.33,7.973 8.197,7.896 8.681,7.74 C 8.807,7.649 8.85,7.604 8.867,7.404 L 9.619,2.853 C 9.642,2.604 9.317,2.273 9.162,2.26 C 9.123,2.257 9.084,2.254 9.037,2.35 C 8.427,3.502 7.864,4.556 7.138,5.697 C 6.999,5.936 6.865,6.125 6.61,6.354 C 6.312,6.629 5.832,6.736 5.327,6.693 C 3.889,6.566 3.208,4.95 3.352,3.308 C 3.535,1.215 4.413,0.137 6.666,-1.423 C 9.043,-3.071 10.703,-5.033 10.961,-7.973 C 11.332,-12.206 8.571,-15.561 4.258,-15.939 C 3.713,-15.987 2.422,-15.999 1.735,-15.758 C 1.614,-15.72 1.488,-15.629 1.424,-15.334 L 0.706,-10.729 C 0.684,-10.479 1.051,-10.196 1.167,-10.186 C 1.206,-10.183 1.245,-10.18 1.293,-10.276 C 1.895,-11.328 2.557,-12.625 3.24,-13.719 C 3.469,-14.101 3.759,-14.277 4.01,-14.455 C 4.343,-14.678 4.826,-14.834 5.215,-14.801 C 6.691,-14.671 8.111,-13.442 7.91,-11.151 C 7.74,-9.209 6.763,-7.89 4.191,-6.257 C 1.455,-4.539 0.231,-2.639 0.004,-0.049 L 0,0 z"
             style="fill:#000000;fill-opacity:1;fill-rule:nonzero;stroke:none"
             id="path2749" /></g><g
           id="g2751"
           transform="translate(496.5557,221.8652)"><path
             d="M 0,0 C 0,0 2.576,-20.268 -7.523,-19.363 C -17.623,-18.463 -16.498,-1.455 -16.498,-1.455"
             style="fill:none;stroke:#000000;stroke-width:3;stroke-linecap:round;stroke-linejoin:round;stroke-miterlimit:4;stroke-dasharray:none;stroke-opacity:1"
             id="path2753" /></g><g
           id="g2755"
           transform="translate(496.8193,221.7891)"><path
             d="M 0,0 C -9.468,3.627 -17.572,-3.053 -17.572,-3.053 C -17.572,-3.053 -18.114,-5.354 -17.344,-5.809 C -16.573,-6.26 0.472,-2.295 0.472,-2.295 L 0,0 z"
             style="fill:none;stroke:#000000;stroke-width:6;stroke-linecap:round;stroke-linejoin:round;stroke-miterlimit:4;stroke-dasharray:none;stroke-opacity:1"
             id="path2757" /></g><g
           id="g2759"
           transform="translate(486.1846,227.8047)"><path
             d="M 0,0 C 0,0 1.394,-1.303 1.576,-3.311"
             style="fill:none;stroke:#000000;stroke-width:3;stroke-linecap:round;stroke-linejoin:round;stroke-miterlimit:4;stroke-dasharray:none;stroke-opacity:1"
             id="path2761" /></g><g
           id="g2763"
           transform="translate(489.2471,201.4492)"><path
             d="M 0,0 C 0,0.861 0.674,1.561 1.506,1.561 C 2.337,1.561 3.01,0.861 3.01,0 C 3.01,-0.863 2.337,-1.563 1.506,-1.563 C 0.674,-1.563 0,-0.863 0,0"
             style="fill:#000000;fill-opacity:1;fill-rule:nonzero;stroke:none"
             id="path2765" /></g></g></g></g></svg>