<?xml version="1.0" encoding="UTF-8" standalone="no"?>
<!-- Created with Inkscape (http://www.inkscape.org/) -->
<svg
   xmlns:dc="http://purl.org/dc/elements/1.1/"
   xmlns:cc="http://creativecommons.org/ns#"
   xmlns:rdf="http://www.w3.org/1999/02/22-rdf-syntax-ns#"
   xmlns:svg="http://www.w3.org/2000/svg"
   xmlns="http://www.w3.org/2000/svg"
   xmlns:sodipodi="http://sodipodi.sourceforge.net/DTD/sodipodi-0.dtd"
   xmlns:inkscape="http://www.inkscape.org/namespaces/inkscape"
   width="77.639999"
   height="89.239998"
   id="svg2478"
   sodipodi:version="0.32"
   inkscape:version="0.46"
   version="1.0"
   sodipodi:docname="suit_h.svg"
   inkscape:output_extension="org.inkscape.output.svg.inkscape">
  <defs
     id="defs2480">
    <inkscape:perspective
       sodipodi:type="inkscape:persp3d"
       inkscape:vp_x="0 : 526.18109 : 1"
       inkscape:vp_y="0 : 1000 : 0"
       inkscape:vp_z="744.09448 : 526.18109 : 1"
       inkscape:persp3d-origin="372.04724 : 350.78739 : 1"
       id="perspective2486" />
  </defs>
  <sodipodi:namedview
     id="base"
     pagecolor="#ffffff"
     bordercolor="#666666"
     borderopacity="1.0"
     inkscape:pageopacity="0.0"
     inkscape:pageshadow="2"
     inkscape:zoom="0.35"
     inkscape:cx="350"
     inkscape:cy="520"
     inkscape:document-units="px"
     inkscape:current-layer="layer1"
     showgrid="false"
     inkscape:window-width="640"
     inkscape:window-height="671"
     inkscape:window-x="0"
     inkscape:window-y="284" />
  <metadata
     id="metadata2483">
    <rdf:RDF>
      <cc:Work
         rdf:about="">
        <dc:format>image/svg+xml</dc:format>
        <dc:type
           rdf:resource="http://purl.org/dc/dcmitype/StillImage" />
      </cc:Work>
    </rdf:RDF>
  </metadata>
  <g
     inkscape:label="Ebene 1"
     inkscape:groupmode="layer"
     id="layer1"
     transform="translate(-207.39397,-402.5268)">
    <path
       id="path1935"
       d="M 245.85491,490.76899 C 244.40174,485.23774 242.32753,480.04634 239.63225,475.19477 C 236.93691,470.34322 231.72207,462.80807 223.98772,452.5893 C 218.31583,445.08934 214.82365,440.33153 213.51116,438.31586 C 211.3549,435.03466 209.79631,432.02295 208.83538,429.2807 C 207.87443,426.53858 207.39397,423.76124 207.39397,420.94867 C 207.39397,415.74562 209.12834,411.38625 212.5971,407.87055 C 216.06583,404.35501 220.35489,402.5972 225.46428,402.59711 C 230.62051,402.5972 235.09706,404.42532 238.89397,408.08149 C 241.75331,410.80031 244.07362,414.855 245.85491,420.24555 C 247.40174,414.94875 249.58142,410.9175 252.39397,408.1518 C 256.28454,404.40188 260.78454,402.52688 265.89397,402.5268 C 270.9564,402.52688 275.24546,404.27298 278.76116,407.76508 C 282.2767,411.25734 284.03452,415.4175 284.0346,420.24555 C 284.03452,424.46436 283.00327,428.85889 280.94085,433.42914 C 278.87827,437.99951 274.8939,443.98778 268.98772,451.39399 C 261.30016,461.09714 255.69861,469.06588 252.18303,475.30024 C 249.41736,480.22212 247.30799,485.37836 245.85491,490.76899 L 245.85491,490.76899 z"
       style="font-size:144px;font-style:normal;font-weight:normal;fill:#d40000;fill-opacity:1;stroke:none;stroke-width:1px;stroke-linecap:butt;stroke-linejoin:miter;stroke-opacity:1;font-family:Bitstream Vera Sans" />
  </g>
</svg>
