<?xml version="1.0" encoding="UTF-8" standalone="no"?>
<!-- Created with Inkscape (http://www.inkscape.org/) -->
<svg
   xmlns:dc="http://purl.org/dc/elements/1.1/"
   xmlns:cc="http://creativecommons.org/ns#"
   xmlns:rdf="http://www.w3.org/1999/02/22-rdf-syntax-ns#"
   xmlns:svg="http://www.w3.org/2000/svg"
   xmlns="http://www.w3.org/2000/svg"
   xmlns:sodipodi="http://sodipodi.sourceforge.net/DTD/sodipodi-0.dtd"
   xmlns:inkscape="http://www.inkscape.org/namespaces/inkscape"
   width="88.029999"
   height="87.559998"
   id="svg2509"
   sodipodi:version="0.32"
   inkscape:version="0.46"
   version="1.0"
   sodipodi:docname="suit_c.svg"
   inkscape:output_extension="org.inkscape.output.svg.inkscape">
  <defs
     id="defs2511">
    <inkscape:perspective
       sodipodi:type="inkscape:persp3d"
       inkscape:vp_x="0 : 526.18109 : 1"
       inkscape:vp_y="0 : 1000 : 0"
       inkscape:vp_z="744.09448 : 526.18109 : 1"
       inkscape:persp3d-origin="372.04724 : 350.78739 : 1"
       id="perspective2517" />
  </defs>
  <sodipodi:namedview
     id="base"
     pagecolor="#ffffff"
     bordercolor="#666666"
     borderopacity="1.0"
     inkscape:pageopacity="0.0"
     inkscape:pageshadow="2"
     inkscape:zoom="3"
     inkscape:cx="115.1591"
     inkscape:cy="75.124172"
     inkscape:document-units="px"
     inkscape:current-layer="layer1"
     showgrid="false"
     inkscape:window-width="952"
     inkscape:window-height="901"
     inkscape:window-x="318"
     inkscape:window-y="54" />
  <metadata
     id="metadata2514">
    <rdf:RDF>
      <cc:Work
         rdf:about="">
        <dc:format>image/svg+xml</dc:format>
        <dc:type
           rdf:resource="http://purl.org/dc/dcmitype/StillImage" />
      </cc:Work>
    </rdf:RDF>
  </metadata>
  <g
     inkscape:label="Ebene 1"
     inkscape:groupmode="layer"
     id="layer1"
     transform="translate(-156.48438,-374.79522)">
    <path
       id="path1937"
       d="M 199.98438,374.79522 C 194.45319,374.79529 189.82038,376.65468 186.04688,380.35772 C 182.27351,384.06091 180.39069,388.46716 180.39063,393.57647 C 180.39069,397.74839 182.00007,402.10778 185.23438,406.70147 C 182.43252,404.36694 179.6389,402.98272 174.32813,402.98272 C 163.93692,402.98271 156.48438,411.51251 156.48438,422.17022 C 156.48435,433.47131 164.73203,442.07648 175.73438,442.07647 C 186.75008,442.07645 195.01615,434.56255 199.07813,425.42022 C 198.89068,432.87336 197.75786,438.77181 195.67188,443.10772 C 193.586,447.44367 190.39069,451.02961 186.07813,453.88897 C 183.17194,455.81084 177.93758,457.49835 170.39063,458.95147 L 169.82813,461.35772 L 199.98438,461.35772 L 230.17188,461.35772 L 229.60938,458.95147 C 222.06243,457.49835 216.82806,455.81084 213.92188,453.88897 C 209.60932,451.02961 206.41402,447.44367 204.32813,443.10772 C 202.24215,438.77181 201.10932,432.87336 200.92188,425.42022 C 204.98386,434.56255 213.24992,442.07645 224.26563,442.07647 C 235.26798,442.07648 243.51565,433.47131 243.51563,422.17022 C 243.51563,411.51251 236.06308,402.98271 225.67188,402.98272 C 220.36111,402.98272 217.56748,404.36694 214.76563,406.70147 C 217.99994,402.10778 219.60933,397.74839 219.60938,393.57647 C 219.60932,388.46716 217.7265,384.06091 213.95313,380.35772 C 210.17963,376.65468 205.51557,374.79529 199.98438,374.79522 z"
       style="font-size:144px;font-style:normal;font-weight:normal;fill:#008000;fill-opacity:1;stroke:none;stroke-width:1px;stroke-linecap:butt;stroke-linejoin:miter;stroke-opacity:1;font-family:Bitstream Vera Sans" />
  </g>
</svg>
